<svg xmlns="http://www.w3.org/2000/svg" version="1.0" preserveAspectRatio="xMidYMid meet" viewBox="87 363.22 850.5 244.51">

<g transform="translate(0.000000,1024.000000) scale(0.100000,-0.100000)" fill="#ffffff" stroke="none">
<path d="M1890 6603 c-433 -34 -816 -342 -960 -771 -184 -550 69 -1183 571 -1430 169 -82 297 -112 489 -112 200 0 351 36 516 124 207 110 417 321 577 578 23 37 44 67 48 68 3 0 32 -42 64 -92 201 -314 444 -525 713 -622 214 -76 507 -75 723 4 366 133 640 455 725 850 22 105 25 350 5 460 -64 357 -302 678 -616 834 -353 175 -783 143 -1117 -82 -147 -99 -320 -284 -443 -475 -27 -42 -52 -77 -55 -76 -3 0 -25 32 -50 72 -25 40 -79 115 -121 167 -251 310 -510 462 -851 499 -95 11 -125 11 -218 4z m287 -363 c272 -65 493 -263 725 -652 l72 -121 -34 -64 c-19 -36 -64 -112 -100 -169 -215 -343 -385 -496 -640 -576 -98 -30 -307 -33 -410 -5 -217 60 -406 217 -505 422 -59 122 -76 188 -82 336 -11 252 56 434 225 611 113 118 240 191 387 223 94 21 266 18 362 -5z m2282 0 c213 -51 399 -205 505 -417 120 -240 113 -555 -18 -787 -103 -183 -287 -329 -481 -381 -97 -26 -247 -31 -344 -11 -314 64 -508 249 -814 777 l-26 47 82 134 c243 395 456 581 732 643 94 21 265 18 364 -5z"/>
<path d="M1837 5912 c-14 -15 -17 -42 -17 -149 0 -98 -3 -133 -14 -142 -8 -7 -64 -12 -140 -14 -168 -3 -166 -1 -166 -173 0 -167 -3 -164 168 -164 86 0 132 -4 140 -12 8 -8 12 -54 12 -139 0 -126 0 -128 26 -148 24 -19 40 -21 146 -21 113 0 120 1 143 25 24 23 25 30 25 148 0 82 4 127 12 135 8 8 53 12 138 12 166 0 160 -6 160 167 0 167 5 161 -155 164 -66 1 -128 6 -137 11 -16 8 -18 25 -18 141 0 181 4 177 -174 177 -116 0 -135 -2 -149 -18z"/>
<path d="M4214 5959 c-100 -29 -138 -188 -67 -276 73 -91 226 -75 273 30 67 147 -53 291 -206 246z"/>
<path d="M3855 5607 c-38 -18 -60 -43 -80 -90 -21 -51 -19 -95 8 -147 31 -63 76 -90 147 -90 95 0 157 56 166 151 4 44 1 62 -18 98 -13 25 -35 54 -50 65 -35 25 -131 32 -173 13z"/>
<path d="M4530 5598 c-59 -41 -75 -72 -75 -147 0 -55 4 -74 25 -103 64 -94 203 -91 274 5 16 22 21 43 21 96 0 59 -4 72 -29 105 -51 68 -151 88 -216 44z"/>
<path d="M4205 5256 c-121 -54 -128 -252 -12 -313 47 -24 126 -21 172 7 97 60 98 223 3 293 -34 26 -121 33 -163 13z"/>
<path d="M6050 6514 c-153 -41 -252 -160 -253 -304 -1 -90 17 -144 65 -196 52 -56 115 -86 263 -125 183 -48 225 -76 225 -151 0 -55 -18 -85 -66 -108 -49 -24 -141 -29 -196 -11 -38 13 -111 84 -122 119 -10 29 -36 35 -93 21 -82 -20 -86 -24 -81 -80 10 -96 88 -184 205 -230 48 -19 78 -23 178 -23 103 -1 129 2 183 23 81 31 152 94 182 163 33 78 33 194 -2 270 -43 93 -96 123 -317 178 -145 36 -175 50 -196 90 -34 66 -9 140 58 171 87 39 171 17 245 -66 l47 -53 71 13 c39 6 76 15 83 19 33 20 -12 129 -78 189 -104 94 -259 129 -401 91z"/>
<path d="M6976 6205 c-22 -8 -54 -27 -73 -41 l-33 -25 0 23 c0 39 -18 48 -100 48 -46 0 -81 -5 -88 -12 -9 -9 -12 -107 -12 -380 0 -353 1 -368 19 -378 24 -13 141 -13 161 0 12 8 16 51 20 252 5 208 8 248 23 276 53 97 212 95 253 -3 11 -27 14 -88 14 -274 0 -279 -7 -261 109 -258 50 2 75 7 82 17 6 9 8 126 6 295 -3 308 -5 318 -69 390 -49 56 -100 78 -193 82 -54 2 -93 -2 -119 -12z"/>
<path d="M7697 6210 c-100 -26 -197 -114 -197 -181 0 -31 28 -46 105 -55 l55 -7 39 44 c38 43 40 44 100 44 55 -1 64 -4 93 -33 24 -23 32 -40 32 -66 0 -20 -2 -38 -5 -40 -3 -3 -57 -13 -120 -21 -231 -31 -315 -76 -337 -181 -12 -53 -3 -145 17 -181 14 -27 62 -69 101 -88 86 -44 237 -25 304 39 l36 33 0 -27 c0 -47 26 -60 109 -56 48 2 76 8 82 17 5 8 9 134 9 281 0 245 -2 272 -20 322 -24 62 -69 108 -139 139 -52 24 -200 33 -264 17z m223 -484 c0 -58 -3 -67 -30 -93 -38 -35 -81 -51 -142 -52 -60 -1 -88 23 -88 75 0 71 31 94 150 114 76 12 103 17 108 19 1 0 2 -28 2 -63z"/>
<path d="M8595 6211 c-40 -10 -95 -39 -122 -64 l-23 -20 0 29 c0 17 -5 35 -12 42 -19 19 -153 16 -172 -4 -14 -14 -16 -74 -16 -513 0 -416 2 -500 14 -510 9 -8 45 -11 98 -9 l83 3 3 172 2 171 51 -34 c65 -43 119 -57 197 -51 162 13 274 130 303 317 35 227 -55 415 -223 465 -54 16 -132 18 -183 6z m130 -190 c17 -9 41 -37 55 -62 21 -37 25 -57 25 -129 0 -131 -44 -206 -138 -231 -61 -16 -128 4 -171 51 -41 46 -56 93 -56 178 0 113 46 184 138 212 36 11 110 2 147 -19z"/>
<path d="M6145 5223 c-104 -14 -214 -70 -290 -147 -99 -102 -145 -222 -145 -381 0 -150 47 -280 137 -376 98 -104 209 -151 363 -151 201 -1 344 86 422 257 20 44 22 65 21 168 -1 76 -6 123 -14 133 -10 12 -45 14 -208 12 l-196 -3 0 -80 0 -80 105 -3 c58 -1 108 -6 112 -10 11 -11 -11 -92 -34 -125 -56 -78 -226 -105 -334 -52 -109 53 -157 149 -158 315 -1 95 2 111 27 166 34 74 75 115 141 145 116 51 242 15 324 -94 24 -31 51 -57 60 -57 32 1 145 45 155 61 16 26 -37 120 -100 180 -65 61 -153 103 -250 118 -72 11 -83 11 -138 4z"/>
<path d="M7019 4939 c-76 -8 -140 -41 -188 -95 -68 -77 -63 -116 15 -134 72 -17 92 -13 133 30 26 28 47 40 67 41 88 3 129 -16 145 -70 15 -51 8 -69 -33 -75 -18 -3 -78 -12 -133 -21 -134 -21 -186 -39 -228 -80 -85 -83 -68 -265 31 -332 95 -64 257 -50 341 30 29 28 32 29 27 10 -4 -12 -2 -31 4 -43 9 -17 20 -20 84 -20 47 0 77 5 84 13 7 8 12 112 14 277 3 259 2 266 -20 315 -13 27 -33 60 -45 73 -56 61 -180 94 -298 81z m171 -483 c0 -60 -2 -66 -34 -94 -43 -38 -133 -61 -171 -44 -59 27 -58 120 2 155 26 15 134 41 191 46 8 1 12 -18 12 -63z"/>
<path d="M8960 4937 c-31 -7 -76 -25 -101 -39 -230 -135 -237 -528 -13 -677 65 -42 114 -55 211 -55 71 0 90 5 147 33 106 52 185 156 144 188 -23 18 -110 43 -123 35 -7 -4 -24 -21 -39 -38 -34 -42 -84 -64 -141 -64 -83 0 -148 55 -161 138 l-6 42 248 2 249 3 -1 95 c0 83 -4 102 -28 150 -73 146 -229 222 -386 187z m170 -177 c26 -19 49 -57 65 -107 l6 -23 -161 0 -162 0 7 28 c20 83 95 138 173 128 24 -3 56 -15 72 -26z"/>
<path d="M7790 4924 c-19 -8 -47 -27 -62 -41 l-28 -27 0 25 c0 14 -5 30 -12 37 -16 16 -150 16 -166 0 -9 -9 -12 -105 -12 -370 l0 -358 23 -5 c12 -3 54 -5 92 -3 l70 3 5 240 c6 264 12 290 70 320 46 24 114 20 147 -9 l28 -24 3 -253 c2 -161 7 -258 14 -266 7 -9 37 -13 89 -13 76 0 80 1 89 26 6 14 10 122 10 240 0 239 6 271 59 298 45 24 115 21 145 -6 39 -34 47 -100 39 -328 -5 -155 -3 -203 7 -215 16 -19 152 -22 168 -2 7 8 12 107 14 267 3 288 -5 338 -65 407 -46 53 -97 73 -187 73 -88 0 -138 -20 -189 -74 l-35 -36 -30 36 c-16 20 -48 45 -70 55 -51 23 -166 25 -216 3z"/>
</g>
</svg>